<svg width="36" height="36" viewBox="0 0 36 36" fill="none" xmlns="http://www.w3.org/2000/svg">
<rect x="35" y="35" width="34" height="34" rx="17" transform="rotate(-180 35 35)" stroke="currentColor" stroke-width="2"/>
<path d="M23.8328 16.4166L14.9742 16.4166L18.8258 12.8554C19.0455 12.6516 19.169 12.3751 19.169 12.0869C19.169 11.7986 19.0455 11.5222 18.8258 11.3183C18.606 11.1145 18.3079 11 17.9971 11C17.6863 11 17.3882 11.1145 17.1684 11.3183L11.3327 16.7305C11.2264 16.8335 11.1431 16.9549 11.0876 17.0877C10.9708 17.3513 10.9708 17.6469 11.0876 17.9104C11.1431 18.0433 11.2264 18.1647 11.3327 18.2676L17.1684 23.6798C17.2769 23.7813 17.406 23.8618 17.5482 23.9168C17.6905 23.9717 17.843 24 17.9971 24C18.1512 24 18.3037 23.9717 18.4459 23.9168C18.5882 23.8618 18.7173 23.7813 18.8258 23.6798C18.9352 23.5792 19.022 23.4595 19.0812 23.3276C19.1405 23.1957 19.171 23.0542 19.171 22.9113C19.171 22.7684 19.1405 22.6269 19.0812 22.495C19.022 22.3631 18.9352 22.2434 18.8258 22.1428L14.9742 18.5815L23.8328 18.5815C24.1424 18.5815 24.4393 18.4675 24.6582 18.2645C24.877 18.0615 25 17.7862 25 17.4991C25 17.212 24.877 16.9367 24.6582 16.7337C24.4393 16.5307 24.1424 16.4166 23.8328 16.4166Z" fill="white"/>
</svg>
