<svg width="263" height="253" viewBox="0 0 263 253" fill="none" xmlns="http://www.w3.org/2000/svg">
<g filter="url(#filter0_d_0_44)">
<circle cx="131.61" cy="121.926" r="90.6247" transform="rotate(-26.2946 131.61 121.926)" fill="white"/>
<circle cx="131.747" cy="122.014" r="72.6671" transform="rotate(-26.2946 131.747 122.014)" fill="#FFCA95" stroke="#FC6727" stroke-width="11.5689"/>
<path d="M187.98 138.884L187.344 140.985L179.13 138.584L179.766 136.483L182.789 137.364L184.069 132.963L181.046 132.082L181.612 130.044L189.826 132.445L189.26 134.483L186.237 133.602L184.957 138.003L187.98 138.884Z" fill="#252525"/>
<path d="M183.089 148.972C182.535 149.411 181.923 149.647 181.189 149.678C180.454 149.709 179.666 149.47 178.758 148.959L174.922 146.973L175.954 144.958L178.602 146.687L178.678 146.49C177.71 145.843 177.144 145.149 176.914 144.405C176.683 143.661 176.788 142.867 177.229 142.022C177.674 141.111 178.235 140.539 178.849 140.236C179.464 139.933 180.125 140.032 180.907 140.404C181.363 140.626 181.679 140.974 181.926 141.386C182.172 141.798 182.279 142.336 182.253 142.868C182.224 143.466 182.059 144.124 181.694 144.773L180.514 147.113C180.91 147.199 181.312 147.152 181.591 146.9C181.866 146.713 182.221 146.264 182.516 145.679C182.735 145.29 182.818 144.961 182.834 144.629C182.85 144.296 182.8 143.961 182.623 143.486L184.543 142.38C184.97 143.201 185.134 143.942 185.164 144.676C185.195 145.41 185.03 146.069 184.665 146.717C184.145 147.824 183.644 148.532 183.089 148.972ZM178.689 144.892C178.607 145.221 178.59 145.553 178.71 145.826C178.831 146.098 179.017 146.374 179.34 146.589L180.52 144.249C180.885 143.6 180.841 143.132 180.385 142.91C180.189 142.833 179.99 142.824 179.787 142.88C179.584 142.937 179.372 143.193 179.223 143.519C178.928 144.104 178.772 144.563 178.689 144.892Z" fill="#252525"/>
<path d="M168.943 154.809L170.294 153.077L174.786 156.628L172.995 149.611L174.415 147.815L181.157 153.076L179.949 154.615C180.494 154.376 181.032 154.269 181.561 154.361C182.093 154.387 182.615 154.613 183.064 154.968L181.644 156.764C181.325 156.482 180.995 156.399 180.657 156.516C180.318 156.632 180.036 156.951 179.68 157.4C179.325 157.849 179.176 158.175 179.16 158.508C179.144 158.84 179.264 159.112 179.65 159.398L178.23 161.194C177.78 160.838 177.471 160.357 177.294 159.882C177.12 159.34 177.076 158.872 177.172 158.277L175.821 160.01L168.943 154.809ZM177.115 158.074C177.284 157.35 177.579 156.765 178.073 156.189C178.571 155.547 179.195 155.045 179.81 154.742L175.314 151.257L177.115 158.074Z" fill="#252525"/>
<path d="M163.343 160.33C163.648 159.546 164.149 158.837 164.982 158.145C165.54 157.64 166.221 157.34 166.962 157.176C167.703 157.013 168.431 157.115 169.153 157.35C169.875 157.586 170.52 158.017 171.023 158.641C171.526 159.265 171.896 159.883 172.056 160.69C172.22 161.431 172.184 162.162 171.949 162.884C171.714 163.605 171.283 164.25 170.725 164.756C169.125 166.143 167.44 166.527 165.677 165.775L166.246 163.671C166.708 163.76 167.107 163.779 167.44 163.796C167.772 163.812 168.041 163.758 168.247 163.635C168.453 163.512 168.726 163.392 168.938 163.136C169.423 162.76 169.648 162.238 169.674 161.706C169.7 161.175 169.523 160.7 169.147 160.215C168.704 159.727 168.248 159.505 167.717 159.479C167.185 159.453 166.706 159.696 166.221 160.072C165.873 160.388 165.591 160.707 165.505 161.103C165.352 161.495 165.33 161.96 165.374 162.429L163.16 162.72C163.069 161.849 163.108 161.052 163.343 160.33Z" fill="#252525"/>
<path d="M156.881 173.939L152.643 166.536L154.493 165.494L156.642 169.263L155.795 164.758L157.785 163.59L161.236 166.624L159.087 162.854L160.937 161.812L165.175 169.215L163.119 170.38L158.108 166.537L158.871 172.77L156.881 173.939Z" fill="#252525"/>
<path d="M148.154 176.644C147.423 176.608 146.837 176.313 146.328 175.821C145.819 175.33 145.389 174.576 145.102 173.629L143.77 169.5L145.937 168.807L146.586 171.903L146.788 171.847C146.577 170.704 146.619 169.84 146.987 169.125C147.355 168.41 147.976 167.974 148.927 167.621C149.874 167.334 150.678 167.24 151.333 167.472C151.988 167.704 152.428 168.259 152.655 169.069C152.832 169.544 152.809 170.009 152.72 170.471C152.631 170.933 152.342 171.386 151.924 171.765C151.506 172.144 150.888 172.514 150.21 172.747L147.705 173.557C147.954 173.902 148.277 174.118 148.606 174.201C148.936 174.284 149.474 174.177 150.082 174.007C150.487 173.893 150.763 173.707 151.042 173.454C151.254 173.198 151.47 172.875 151.689 172.486L153.86 173.059C153.552 173.91 153.184 174.625 152.693 175.134C152.202 175.643 151.584 176.012 150.906 176.246C149.693 176.519 148.886 176.68 148.154 176.644ZM147.847 170.633C147.571 170.819 147.359 171.075 147.213 171.334C147.067 171.594 147.051 171.926 147.098 172.328L149.603 171.518C150.348 171.288 150.63 170.969 150.453 170.494C150.396 170.291 150.27 170.152 150.007 170.072C149.811 169.996 149.478 169.98 149.136 170.163C148.601 170.203 148.192 170.383 147.847 170.633Z" fill="#252525"/>
<path d="M141.866 173.005C142.392 173.164 142.775 173.516 143.088 173.931C143.401 174.346 143.568 175.021 143.662 175.825L143.948 178.171L141.668 178.459L141.372 176.312C141.328 175.844 141.145 175.502 140.952 175.359C140.759 175.216 140.43 175.134 139.892 175.24L137.209 175.575L137.643 178.995L135.363 179.283L134.308 170.836L136.588 170.548L136.987 173.299L139.872 172.908C140.676 172.814 141.341 172.846 141.866 173.005Z" fill="#252525"/>
<path d="M125.977 179.021L123.783 178.914L124.334 170.346L126.528 170.454L126.309 173.574L130.894 173.866L131.112 170.745L133.24 170.849L132.693 179.35L130.565 179.246L130.784 176.125L126.199 175.834L125.977 179.021Z" fill="#252525"/>
<path d="M120.984 178.91C121.171 179.186 121.224 179.455 121.142 179.784C121.059 180.113 120.913 180.372 120.638 180.559C120.362 180.745 120.026 180.795 119.697 180.712C119.368 180.63 119.108 180.484 118.922 180.208C118.735 179.932 118.682 179.663 118.764 179.334C118.847 179.005 118.993 178.746 119.269 178.559C119.544 178.373 119.814 178.32 120.143 178.402C120.542 178.422 120.798 178.634 120.984 178.91ZM121.412 178.331L119.168 177.888L120.839 169.575L123.083 170.018L121.412 178.331Z" fill="#252525"/>
<path d="M109.645 175.024L107.483 174.251L110.274 166.193L120.301 169.683L117.51 177.741L115.348 176.969L117.368 171.071L115.662 170.521L113.642 176.419L111.48 175.647L113.5 169.749L111.665 169.126L109.645 175.024Z" fill="#252525"/>
<path d="M105.439 173.752C105.556 174.091 105.543 174.357 105.394 174.683C105.245 175.008 105.036 175.198 104.7 175.248C104.361 175.365 104.095 175.352 103.772 175.136C103.513 174.99 103.257 174.778 103.206 174.442C103.09 174.103 103.169 173.841 103.318 173.515C103.467 173.189 103.676 172.999 104.015 172.883C104.354 172.766 104.62 172.779 104.946 172.928C105.133 173.204 105.323 173.413 105.439 173.752ZM105.994 173.313L103.912 172.278L107.814 164.674L109.896 165.709L105.994 173.313Z" fill="#252525"/>
<path d="M98.6544 168.023C97.9069 168.319 97.1691 168.417 96.441 168.314C95.7128 168.212 95.0544 168.047 94.4722 167.685L94.083 167.466C93.3046 167.028 92.7191 166.733 92.3234 166.647C91.9277 166.561 91.5921 166.611 91.3797 166.867L89.5827 165.447C90.0108 164.868 90.4956 164.492 90.9042 164.312C91.3128 164.132 91.7847 164.022 92.2469 164.111C92.7091 164.201 93.2977 164.429 93.9432 164.861L94.3989 165.083C95.3703 165.663 96.285 166.041 97.0196 166.011C97.7542 165.98 98.5617 165.82 99.126 165.181L98.8697 164.969C98.5876 165.288 98.179 165.468 97.7768 165.515C97.3082 165.559 96.8428 165.536 96.3838 165.38C95.9249 165.224 95.4692 165.002 95.1497 164.72C94.3809 164.083 93.8782 163.458 93.5781 162.777C93.278 162.097 93.1774 161.425 93.273 160.83C93.3718 160.169 93.6669 159.584 94.0917 159.072C94.5165 158.559 95.071 158.12 95.6791 157.95C96.2904 157.714 96.9585 157.68 97.6834 157.848C98.4083 158.017 99.1235 158.385 99.8922 159.023C101.303 160.158 102.046 161.327 102.254 162.536C102.461 163.746 102.001 164.989 101.009 166.206L100.793 166.529C100.093 167.227 99.402 167.726 98.6544 168.023ZM99.9202 162.555C99.7434 162.08 99.2974 161.658 98.6584 161.094C98.0827 160.6 97.4972 160.304 96.9686 160.212C96.4399 160.119 96.0345 160.233 95.7524 160.552C95.467 160.938 95.3811 161.333 95.6244 161.812C95.8678 162.29 96.244 162.775 96.8863 163.273C97.5285 163.77 98.1107 164.132 98.5729 164.221C99.0351 164.311 99.4404 164.197 99.7258 163.811C100.081 163.362 100.167 162.967 99.9202 162.555Z" fill="#252525"/>
<path d="M93.9233 154.332C94.0207 155.069 93.9154 155.864 93.6803 156.585C93.3788 157.303 92.9475 157.948 92.3232 158.451C91.699 158.953 91.0147 159.319 90.2104 159.413C89.4061 159.507 88.6747 159.471 87.953 159.236C87.2314 159.001 86.5859 158.569 86.0831 157.945C85.5804 157.321 85.2803 156.64 85.1829 155.902C85.0855 155.165 85.1908 154.37 85.4258 153.649C85.7274 152.931 86.1586 152.286 86.7829 151.783C87.4072 151.281 88.0914 150.915 88.899 150.754C89.7065 150.594 90.4379 150.63 91.1563 150.931C91.878 151.167 92.5234 151.598 93.0262 152.222C93.529 152.847 93.8291 153.527 93.9233 154.332ZM89.856 153C89.3241 152.974 88.7793 153.214 88.2945 153.59C87.8097 153.966 87.5178 154.484 87.4255 155.013C87.3331 155.541 87.5067 156.083 87.8862 156.501C88.2625 156.986 88.7182 157.208 89.3166 157.237C89.8485 157.263 90.3933 157.024 90.8781 156.648C91.363 156.272 91.6548 155.753 91.7472 155.224C91.8395 154.696 91.7324 154.158 91.2864 153.736C90.8437 153.248 90.3879 153.026 89.856 153Z" fill="#252525"/>
<path d="M77.8002 144.617L82.7835 144.928L85.2608 140.585L86.427 142.641L84.6031 145.883L85.7661 148.005L88.5064 146.474L89.5494 148.324L82.0855 152.422L81.0426 150.572L83.7829 149.041L82.62 146.919L78.8967 146.736L77.8002 144.617Z" fill="#252525"/>
<path d="M82.6575 133.862C83.23 134.423 83.7263 135.18 84.0767 136.196C84.307 136.941 84.338 137.675 84.1694 138.399C84.0008 139.124 83.6361 139.772 83.1415 140.348C82.647 140.923 81.9627 141.29 81.2152 141.586C80.4677 141.883 79.7331 141.913 78.9417 141.741C78.2168 141.572 77.4984 141.271 76.9226 140.776C76.3469 140.282 75.9106 139.661 75.6802 138.916C74.9794 136.883 75.3262 135.235 76.6574 133.901L78.3911 135.252C78.1058 135.637 77.9534 136.03 77.8075 136.289C77.728 136.552 77.6454 136.881 77.6357 137.08C77.6227 137.346 77.6763 137.615 77.7931 137.954C77.9634 138.562 78.3429 138.98 78.7986 139.202C79.2544 139.425 79.7863 139.451 80.3279 139.277C80.9359 139.107 81.3543 138.728 81.5764 138.273C81.7985 137.817 81.8244 137.285 81.5875 136.674C81.6037 136.342 81.3572 135.93 81.1042 135.651C80.8511 135.372 80.3954 135.15 79.9365 134.994L80.5087 132.824C81.3665 132.999 82.0849 133.301 82.6575 133.862Z" fill="#252525"/>
<path d="M72.6336 123.443L81.0854 122.324L81.3808 124.471L75.6809 125.191L81.9684 128.83L82.2573 131.11L73.8055 132.228L73.5069 130.148L79.2068 129.428L72.9193 125.789L72.6336 123.443Z" fill="#252525"/>
<circle cx="114.335" cy="106.416" r="19.9899" transform="rotate(-12.205 114.335 106.416)" fill="white"/>
<circle cx="149.163" cy="98.8804" r="19.9899" transform="rotate(-12.205 149.163 98.8804)" fill="white"/>
<path fill-rule="evenodd" clip-rule="evenodd" d="M149.64 115.788C145.175 116.757 140.753 115.853 137.132 113.656C139.648 105.29 137.639 95.9731 131.901 89.3971C133.136 87.5897 134.711 86.0203 136.565 84.7847C133.516 92.0203 137.844 100.489 145.47 102.268C152.906 104.005 160.348 98.6405 161.151 91.0675C166.352 100.938 160.609 113.407 149.641 115.787L149.64 115.788ZM152.606 88.8294C153.51 93.019 145.124 94.8385 144.22 90.6489C143.317 86.4593 151.703 84.6398 152.606 88.8294ZM126.608 115.938C120.57 124.779 107.681 125.909 100.211 118.293C92.7995 110.731 94.2058 97.9347 103.021 92.0621C100.055 99.1086 104.061 107.348 111.394 109.397C118.928 111.504 126.784 106.106 127.608 98.3444C130.566 103.961 130.205 110.675 126.608 115.938ZM113.966 92.8277C118.159 91.9179 119.966 100.297 115.773 101.207C111.58 102.117 109.773 93.7375 113.966 92.8277ZM140.607 73.89C134.154 75.2903 128.815 79.0098 125.224 83.9689C106.217 73.1506 82.74 90.4983 87.3258 111.766C91.9113 133.032 120.436 139.097 133.287 121.366C149.213 130.432 169.806 119.762 171.638 101.572C173.362 84.466 157.4 70.2464 140.607 73.8902" fill="#252525"/>
</g>
<defs>
<filter id="filter0_d_0_44" x="33.1075" y="25.6688" width="197.005" height="197.005" filterUnits="userSpaceOnUse" color-interpolation-filters="sRGB">
<feFlood flood-opacity="0" result="BackgroundImageFix"/>
<feColorMatrix in="SourceAlpha" type="matrix" values="0 0 0 0 0 0 0 0 0 0 0 0 0 0 0 0 0 0 127 0" result="hardAlpha"/>
<feOffset dy="2.24496"/>
<feGaussianBlur stdDeviation="3.92869"/>
<feComposite in2="hardAlpha" operator="out"/>
<feColorMatrix type="matrix" values="0 0 0 0 0 0 0 0 0 0 0 0 0 0 0 0 0 0 0.25 0"/>
<feBlend mode="normal" in2="BackgroundImageFix" result="effect1_dropShadow_0_44"/>
<feBlend mode="normal" in="SourceGraphic" in2="effect1_dropShadow_0_44" result="shape"/>
</filter>
</defs>
</svg>
