<svg width="21" height="21" viewBox="0 0 21 21" fill="none" xmlns="http://www.w3.org/2000/svg">
<path d="M10.3217 5.53195C9.30872 5.53195 8.31847 5.83234 7.4762 6.39513C6.63392 6.95792 5.97745 7.75783 5.58979 8.69372C5.20214 9.62961 5.10071 10.6594 5.29833 11.653C5.49596 12.6465 5.98376 13.5591 6.70006 14.2754C7.41635 14.9917 8.32897 15.4795 9.3225 15.6771C10.316 15.8748 11.3459 15.7733 12.2817 15.3857C13.2176 14.998 14.0175 14.3415 14.5803 13.4993C15.1431 12.657 15.4435 11.6667 15.4435 10.6537C15.4435 9.29536 14.9039 7.99261 13.9434 7.03209C12.9828 6.07157 11.6801 5.53195 10.3217 5.53195ZM10.3217 13.7268C9.71392 13.7268 9.11977 13.5466 8.6144 13.2089C8.10904 12.8712 7.71516 12.3913 7.48256 11.8298C7.24997 11.2682 7.18911 10.6503 7.30769 10.0542C7.42626 9.4581 7.71894 8.91053 8.14872 8.48075C8.5785 8.05097 9.12607 7.75829 9.72219 7.63972C10.3183 7.52114 10.9362 7.582 11.4977 7.81459C12.0593 8.04719 12.5392 8.44107 12.8769 8.94644C13.2146 9.4518 13.3948 10.0459 13.3948 10.6537C13.3948 11.4688 13.071 12.2504 12.4947 12.8267C11.9184 13.4031 11.1367 13.7268 10.3217 13.7268ZM15.4435 4.50759C15.2409 4.50759 15.0429 4.56767 14.8744 4.68023C14.706 4.79279 14.5747 4.95277 14.4971 5.13995C14.4196 5.32712 14.3993 5.53309 14.4388 5.73179C14.4784 5.9305 14.5759 6.11302 14.7192 6.25628C14.8624 6.39954 15.045 6.4971 15.2437 6.53663C15.4424 6.57615 15.6483 6.55587 15.8355 6.47834C16.0227 6.4008 16.1827 6.26951 16.2952 6.10105C16.4078 5.9326 16.4679 5.73455 16.4679 5.53195C16.4679 5.26027 16.3599 4.99972 16.1678 4.80762C15.9757 4.61552 15.7152 4.50759 15.4435 4.50759ZM20.5038 6.80216C20.4869 5.92676 20.3206 5.06069 20.0121 4.24126C19.7261 3.49559 19.2865 2.81842 18.7218 2.25369C18.157 1.68897 17.4799 1.24933 16.7342 0.96331C15.9148 0.654875 15.0487 0.488589 14.1733 0.471618C13.1797 0.410156 12.8519 0.410156 10.3217 0.410156C7.79155 0.410156 7.46375 0.410156 6.47012 0.471618C5.59473 0.488589 4.72866 0.654875 3.90923 0.96331C3.16356 1.24933 2.48638 1.68897 1.92166 2.25369C1.35694 2.81842 0.917297 3.49559 0.631279 4.24126C0.322844 5.06069 0.156558 5.92676 0.139586 6.80216C0.0781249 7.80603 0.078125 8.13382 0.078125 10.6537C0.078125 13.1737 0.0781249 13.5015 0.139586 14.5053C0.156558 15.3807 0.322844 16.2468 0.631279 17.0662C0.917297 17.8119 1.35694 18.4891 1.92166 19.0538C2.48638 19.6185 3.16356 20.0582 3.90923 20.3442C4.72866 20.6526 5.59473 20.8189 6.47012 20.8359C7.49448 20.8359 7.79155 20.8973 10.3217 20.8973C12.8519 20.8973 13.1797 20.8973 14.1733 20.8359C15.0487 20.8189 15.9148 20.6526 16.7342 20.3442C17.4799 20.0582 18.157 19.6185 18.7218 19.0538C19.2865 18.4891 19.7261 17.8119 20.0121 17.0662C20.3206 16.2468 20.4869 15.3807 20.5038 14.5053C20.5038 13.481 20.5653 13.1737 20.5653 10.6537C20.5653 8.13382 20.5653 7.80603 20.5038 6.80216ZM18.4551 14.4131C18.4372 15.0632 18.3162 15.7063 18.0966 16.3185C17.9151 16.8023 17.6281 17.2397 17.2566 17.5989C16.8996 17.9706 16.4613 18.2546 15.9762 18.4286C15.3626 18.6572 14.7152 18.7818 14.0606 18.7974C13.0977 18.7974 12.8007 18.8486 10.3115 18.8486C7.82228 18.8486 7.53546 18.8486 6.57256 18.8486C5.91904 18.8317 5.2724 18.7107 4.65701 18.4901C4.17316 18.3086 3.73577 18.0216 3.37656 17.6501C3.00488 17.2931 2.72089 16.8548 2.54683 16.3697C2.31922 15.7594 2.1946 15.1155 2.17806 14.4644C2.17806 13.44 2.17806 13.1839 2.17806 10.705C2.17806 8.22602 2.17806 7.92895 2.17806 6.94557C2.19572 6.29121 2.32029 5.64415 2.54683 5.03002C2.72359 4.54921 3.00731 4.11487 3.37656 3.75981C3.73363 3.38813 4.17188 3.10414 4.65701 2.93008C5.27059 2.70154 5.91799 2.57691 6.57256 2.56131C7.53546 2.45887 7.83252 2.45887 10.3217 2.45887C12.8109 2.45887 13.108 2.45887 14.0709 2.45887C14.7287 2.4756 15.3792 2.60018 15.9967 2.82764C16.4775 3.0044 16.9118 3.28813 17.2669 3.65737C17.6386 4.01444 17.9225 4.4527 18.0966 4.93782C18.3474 5.56121 18.4894 6.22297 18.5166 6.89435C18.5166 7.91871 18.5678 8.1748 18.5678 10.6537C18.5678 13.1327 18.5166 13.4298 18.5166 14.4131H18.4551Z" fill="white"/>
</svg>
