<svg viewBox="0 0 115 73" fill="none" xmlns="http://www.w3.org/2000/svg">
<path fill-rule="evenodd" clip-rule="evenodd" d="M0.0742188 0H73.2799V19.7565H70.0788V3.16651H3.27536V69.2472H70.0768L70.0511 48.2023L73.2523 48.1985L73.2818 72.4137H0.0742188V0Z" fill="white"/>
<path d="M100.217 42.6565L105.167 35.8741L100.824 29.4986H104.713L107.19 33.1023L109.565 29.4986H113.451L109.154 35.8741L114.154 42.6565H110.013L107.187 38.3849L104.357 42.6565H100.217ZM93.4061 32.1824C92.8692 32.18 92.3371 32.2832 91.8409 32.486C91.3476 32.6838 90.8997 32.9781 90.5242 33.3512C90.1461 33.7079 89.849 34.14 89.6527 34.619C89.4563 35.0979 89.3653 35.6127 89.3855 36.1291C89.3853 36.8058 89.5675 37.4702 89.9134 38.0539C90.2622 38.6493 90.7641 39.1427 91.3682 39.4839C91.9927 39.8383 92.7015 40.0217 93.4215 40.0152C93.9617 40.0323 94.4999 39.9417 95.004 39.7487C95.5081 39.5557 95.9678 39.2643 96.3556 38.8919C96.7331 38.5367 97.0316 38.1076 97.2319 37.6319C97.4322 37.1562 97.5299 36.6444 97.5188 36.1291C97.5226 35.4322 97.336 34.7473 96.9786 34.1467C96.6254 33.5467 96.1155 33.0517 95.5024 32.7137C94.864 32.3549 94.1403 32.1715 93.4061 32.1824V32.1824ZM93.5627 29.1009C94.8527 29.0912 96.1228 29.4167 97.2457 30.0451C98.3494 30.6546 99.2697 31.5431 99.9128 32.6196C100.558 33.6783 100.895 34.8929 100.886 36.1291C100.893 37.3664 100.543 38.5799 99.8759 39.6266C99.2056 40.6956 98.2624 41.571 97.1413 42.1646C95.9962 42.7834 94.7109 43.1042 93.4061 43.0967C92.1167 43.1016 90.8479 42.7764 89.7231 42.1525C88.6021 41.5476 87.6604 40.6632 86.9916 39.5871C86.334 38.5512 85.9861 37.3524 85.988 36.1291C85.9804 34.8782 86.3316 33.6507 87.0008 32.5892C87.6759 31.5105 88.6293 30.6292 89.763 30.036C90.9293 29.4101 92.2359 29.0844 93.5627 29.0888V29.1009ZM77.4158 32.1824C76.6986 32.1813 75.9911 32.3466 75.3502 32.6651C74.7276 32.9715 74.1982 33.4356 73.8157 34.01C73.43 34.5776 73.2287 35.248 73.2387 35.9318C73.2305 36.6542 73.4113 37.3664 73.7635 37.9993C74.1091 38.617 74.6212 39.1278 75.2428 39.4748C75.9112 39.8399 76.6647 40.0252 77.4281 40.0121C78.1564 40.0235 78.875 39.8455 79.512 39.496C80.1144 39.169 80.6137 38.6836 80.9545 38.0934C81.2996 37.4943 81.4786 36.8156 81.4732 36.1261C81.4806 35.4288 81.3051 34.7416 80.9637 34.1315C80.6316 33.5337 80.1373 33.0396 79.5366 32.7046C78.8892 32.347 78.1571 32.1668 77.4158 32.1824V32.1824ZM70.0498 42.6686V25.1025H73.2755V30.9771C73.6386 30.532 74.0819 30.1574 74.583 29.872C75.0612 29.5955 75.5784 29.3909 76.1175 29.2648C76.6549 29.1412 77.2047 29.0781 77.7565 29.0766C78.7153 29.0689 79.6653 29.2581 80.5463 29.6322C81.3904 29.9844 82.1543 30.5006 82.793 31.1502C83.425 31.797 83.9224 32.5603 84.257 33.3968C84.5977 34.2355 84.7728 35.1311 84.7726 36.035V36.2293C84.7679 36.7728 84.6937 37.3134 84.5516 37.8384C84.4062 38.3999 84.2004 38.9445 83.9378 39.4626C83.69 39.9554 83.3807 40.4154 83.017 40.8318C82.5989 41.3067 82.1105 41.7161 81.5684 42.0462C81.0189 42.3803 80.4249 42.6368 79.8036 42.8083C79.1717 42.986 78.5177 43.0749 77.8608 43.0724C75.7523 43.0724 74.3374 42.3529 73.2816 40.8683V42.6534L70.0498 42.6686Z" fill="white"/>
<path d="M47.3376 42.6378V28.724H50.4374V29.9809C50.7603 29.3818 51.2961 28.9221 51.9413 28.6906C52.6408 28.4123 53.388 28.27 54.1419 28.2716C54.8828 28.266 55.616 28.4204 56.2903 28.724C56.9315 28.9998 57.4912 29.4323 57.917 29.9809C58.0497 30.1181 58.1689 30.2675 58.273 30.4272C58.353 30.251 58.4765 30.0976 58.6321 29.9809C59.1109 29.4141 59.7277 28.9774 60.4245 28.7119C61.1607 28.4177 61.9477 28.2682 62.7417 28.2716C64.5689 28.2716 65.9889 28.8424 67.0017 29.9839C67.5715 30.5636 67.9806 31.2788 68.1895 32.0605C68.3962 32.9565 68.493 33.8739 68.478 34.7929V42.6287H65.0773V35.2179C65.0773 33.9124 64.9055 33.0199 64.5679 32.5523C64.3626 32.2256 64.0618 31.9684 63.7054 31.8146C63.3206 31.6388 62.9016 31.5486 62.4777 31.5505C62.014 31.5236 61.5517 31.6225 61.1406 31.8365C60.7295 32.0505 60.3853 32.3715 60.1452 32.7649C59.7401 33.372 59.5314 34.3253 59.5314 35.6278C59.5334 35.7022 59.5416 35.7763 59.5559 35.8494C59.57 35.9103 59.5792 35.9722 59.5835 36.0346V42.6651H56.2381V35.2179C56.2446 34.7296 56.2149 34.2416 56.1491 33.7576C56.0777 33.3602 55.9172 32.9837 55.6795 32.6556C55.4551 32.3049 55.1362 32.0232 54.7588 31.8419C54.3687 31.643 53.9363 31.539 53.4974 31.5383C52.6789 31.5383 52.0651 31.7579 51.6559 32.1971C51.2516 32.635 50.9897 33.1829 50.9039 33.7698C50.7979 34.5118 50.7497 35.2609 50.7597 36.0103V42.6408L47.3376 42.6378ZM42.344 28.724H45.7447V42.6378H42.6479V41.1198C41.9113 42.4253 40.6928 43.078 38.9925 43.078C38.1547 43.0955 37.3234 42.9283 36.5589 42.5885C35.7945 42.2488 35.1161 41.745 34.5729 41.1137C34.1955 40.7323 33.8917 40.2857 33.6767 39.7961C33.4774 39.3354 33.3461 38.8487 33.2869 38.351C33.2254 37.7519 33.1967 37.1499 33.201 36.5477V28.724H36.6047V35.5549C36.6047 36.8998 36.7397 37.8379 37.016 38.3723C37.2367 38.8156 37.582 39.1866 38.0104 39.4409C38.4448 39.696 38.9416 39.8283 39.4467 39.8235C40.5864 39.8235 41.3527 39.4237 41.7455 38.6243C42.1779 37.6593 42.3826 36.6097 42.344 35.5549V28.724ZM19.8287 47.3101L22.419 41.3323L17.2598 28.724H21.1146L24.3188 37.6133L27.7195 28.724H31.5344L23.4564 47.3101H19.8287Z" fill="#FCB852"/>
</svg>
