<svg width="1112" height="320" viewBox="0 0 1112 320" fill="none" xmlns="http://www.w3.org/2000/svg">
<path fill-rule="evenodd" clip-rule="evenodd" d="M864.91 0.415573C861.722 0.138525 858.419 0 855.002 0C831.071 0 812.753 6.7953 800.049 20.3859C787.345 33.9765 780.993 53.1806 780.993 77.9982V177.703C796.771 208.934 809.932 237.476 821.31 262.332C822.124 264.111 822.929 265.871 823.725 267.61C832.807 287.462 840.685 304.682 847.85 318.871C850.176 319.013 852.56 319.083 855.002 319.083C878.934 319.083 897.251 312.288 909.956 298.698C922.66 285.107 929.012 265.903 929.012 241.085V148.91C923.603 150.186 918.596 151.178 914.018 151.72C906.383 152.623 899.32 152.359 893.297 149.56C887.409 146.825 883.167 141.981 880.263 135.105V244.188C880.263 264.573 871.843 274.766 855.002 274.766C838.162 274.766 829.742 264.573 829.742 244.188V74.896C829.742 54.5101 838.162 44.3172 855.002 44.3172C864.995 44.3172 872.023 47.9059 876.086 55.0833C877.324 33.2846 873.071 15.2895 864.91 0.415573ZM990.075 133.475L998.043 155.996L963.037 254.676C993.14 220.139 1030.71 192.769 1061.3 171.91L1055.66 155.996L1066.74 124.674C1037.21 125.129 1011.8 128.883 990.075 133.475ZM1070.21 114.858C1069.91 114.86 1069.6 114.862 1069.29 114.865C1037.25 115.142 1009.89 119.229 986.786 124.178L944.419 4.43171H995.827L1028.62 104.588H1029.51L1063.19 4.43171H1109.28L1070.21 114.858ZM1064.68 181.45C1052.44 189.84 1039.28 199.169 1026.05 209.484L1060.53 314.652H1111.94L1064.68 181.45ZM1022.17 212.539C996.996 232.529 971.901 256.105 952.781 283.585L941.76 314.652H987.85L1022.17 212.539ZM836.24 317.489C829.77 304.332 822.799 289.092 815.061 272.176L815.06 272.174C814.19 270.271 813.309 268.347 812.419 266.401C803.225 246.317 792.9 223.898 780.993 199.64V241.085C780.993 265.903 787.345 285.107 800.049 298.698C809.2 308.487 821.264 314.751 836.24 317.489ZM747.413 116.861C749.917 108.695 751.169 99.1387 751.169 88.1911V75.7823C751.169 51.5556 745.407 33.681 733.885 22.1586C722.363 10.3407 704.045 4.43171 678.932 4.43171H605.365V67.581C622.272 63.0578 638.547 60.6611 654.114 61.1455V48.7489H677.602C686.17 48.7489 692.375 51.2602 696.215 56.2828C699.459 60.2214 701.431 66.0677 702.131 73.8217C718.561 82.799 733.67 96.827 747.413 116.861ZM702.42 85.3253C716.869 94.3864 730.385 108.136 742.903 127.759C737.871 137.509 730.138 144.558 719.703 148.906V149.792C743.93 158.065 756.044 179.632 756.044 214.495V241.085C756.044 265.017 749.691 283.334 736.987 296.039C724.578 308.447 706.261 314.652 682.034 314.652H605.365V77.7182C622.58 72.9057 638.826 70.4099 654.114 70.9278V130.736H673.17C682.92 130.736 690.159 128.224 694.886 123.202C699.908 118.179 702.42 109.759 702.42 97.9409V85.3253ZM568.987 79.9366V4.43171H499.409L483.037 121.609C495.107 115.173 506.933 108.962 518.483 103.144L522.011 79.7709H522.897V100.932C529.151 97.8183 535.32 94.8268 541.401 91.9847C550.74 87.6199 559.939 83.5705 568.987 79.9366ZM522.897 111.864C530.549 108.01 538.095 104.323 545.541 100.843C553.523 97.1121 561.338 93.6466 568.987 90.4952V314.652H522.897V111.864ZM516.691 115.012C505.161 120.905 493.391 127.143 481.363 133.589L468.387 226.461H467.501L456.401 147.017C445.532 152.865 434.454 158.801 423.156 164.73L445.785 314.652H486.557L516.691 115.012ZM421.61 154.492L410.332 79.7709H409.445V160.853C405.332 162.987 401.2 165.11 397.052 167.217C387.124 172.262 377.072 177.233 366.901 182.065V4.43171H436.479L454.958 136.686C444.003 142.582 432.879 148.555 421.61 154.492ZM366.901 192.88C378.61 187.379 390.139 181.697 401.481 175.934C404.148 174.579 406.803 173.221 409.445 171.86V314.652H366.901V192.88ZM332.181 197.73V4.43171H285.205V215.794C301.114 210.373 316.776 204.282 332.181 197.73ZM285.205 226.113C301.138 220.783 316.801 214.791 332.181 208.344V241.085C332.181 266.198 325.977 285.55 313.568 299.141C301.159 312.436 283.137 319.083 259.501 319.083C235.865 319.083 217.843 312.436 205.434 299.141C194.669 287.35 188.573 271.223 187.148 250.76C201.762 247.673 217.493 244.229 234.41 240.411C234.797 240.324 235.183 240.236 235.57 240.148V244.631C235.57 255.267 237.638 262.948 241.774 267.676C246.206 272.403 252.41 274.766 260.387 274.766C268.365 274.766 274.421 272.403 278.557 267.676C282.989 262.948 285.205 255.267 285.205 244.631V226.113ZM235.57 230.113V4.43171H186.821V240.835C200.9 237.852 216.024 234.537 232.258 230.873C233.363 230.624 234.467 230.37 235.57 230.113ZM107.691 255.988V182.587L166.632 4.43171H119.213L100.174 69.6719C106.439 78.6249 109.722 88.0819 110.525 97.8653C111.835 113.821 106.488 129.937 98.2052 145.271C89.9055 160.636 78.4122 175.66 66.8382 189.54C64.2068 192.696 61.562 195.803 58.9418 198.849V262.098C69.3391 261.374 81.9715 259.922 97.1741 257.635C100.556 257.127 104.061 256.578 107.691 255.988ZM58.9418 183.742C59.0708 183.587 59.1997 183.433 59.3286 183.278C70.783 169.541 81.7745 155.115 89.6023 140.624C97.4471 126.101 101.871 111.953 100.78 98.6652C100.336 93.2523 98.9662 87.8613 96.4199 82.5364L85.9753 118.327H85.0889L65.5677 51.4342C45.8303 38.0714 30.217 33.3973 18.0255 34.1865C15.3227 34.3614 12.7438 34.809 10.2833 35.5135L58.9418 182.587V183.742ZM7.2078 26.2177C10.413 25.2715 13.8056 24.6614 17.3939 24.4291C30.1458 23.6037 44.7433 27.6075 61.4403 37.2908L51.8511 4.43171H0L7.2078 26.2177ZM58.9418 271.899C69.9337 271.161 83.0758 269.643 98.6281 267.304C101.559 266.864 104.579 266.393 107.691 265.892V314.652H58.9418V271.899ZM929.012 138.853C922.92 140.345 917.577 141.453 912.87 142.01C905.949 142.829 901.027 142.37 897.417 140.693C894.013 139.112 891.123 136.135 888.893 130.366C886.606 124.451 885.139 115.893 884.61 103.73C884.083 91.6254 884.494 76.2787 885.767 56.964C887.159 35.8364 883.785 17.682 876.73 2.19114C890.341 5.186 901.416 11.2509 909.956 20.3859C922.66 33.9765 929.012 53.1806 929.012 77.9982V138.853ZM701.09 263.687C696.954 268.119 690.602 270.335 682.034 270.335H654.114V175.053H675.829C687.056 175.053 695.034 177.859 699.761 183.473C704.783 188.791 707.295 198.541 707.295 212.722V239.756C707.295 250.983 705.227 258.96 701.09 263.687Z" fill="#E9E5E1"/>
</svg>
