<svg width="20" height="21" viewBox="0 0 20 21" fill="none" xmlns="http://www.w3.org/2000/svg">
<path d="M12.72 7.66109L8.43001 11.9611L6.78 10.3111C6.69036 10.2064 6.58004 10.1214 6.45597 10.0614C6.33191 10.0013 6.19678 9.96762 6.05906 9.9623C5.92134 9.95698 5.78401 9.98018 5.65568 10.0305C5.52736 10.0807 5.41081 10.157 5.31335 10.2544C5.2159 10.3519 5.13964 10.4684 5.08937 10.5968C5.03909 10.7251 5.01589 10.8624 5.02121 11.0001C5.02653 11.1379 5.06026 11.273 5.12028 11.3971C5.1803 11.5211 5.26532 11.6314 5.37 11.7211L7.72 14.0811C7.81344 14.1738 7.92426 14.2471 8.0461 14.2969C8.16794 14.3466 8.2984 14.3719 8.43001 14.3711C8.69234 14.37 8.94374 14.2658 9.13 14.0811L14.13 9.08109C14.2237 8.98813 14.2981 8.87753 14.3489 8.75567C14.3997 8.63381 14.4258 8.50311 14.4258 8.37109C14.4258 8.23908 14.3997 8.10838 14.3489 7.98652C14.2981 7.86466 14.2237 7.75406 14.13 7.66109C13.9426 7.47484 13.6892 7.3703 13.425 7.3703C13.1608 7.3703 12.9074 7.47484 12.72 7.66109ZM10 0.871094C8.02219 0.871094 6.08879 1.45758 4.4443 2.5564C2.79981 3.65521 1.51809 5.217 0.761209 7.04426C0.00433284 8.87152 -0.193701 10.8822 0.192152 12.822C0.578004 14.7618 1.53041 16.5436 2.92894 17.9422C4.32746 19.3407 6.10929 20.2931 8.0491 20.6789C9.98891 21.0648 11.9996 20.8668 13.8268 20.1099C15.6541 19.353 17.2159 18.0713 18.3147 16.4268C19.4135 14.7823 20 12.8489 20 10.8711C20 9.55787 19.7413 8.25751 19.2388 7.04426C18.7363 5.831 17.9997 4.72861 17.0711 3.80003C16.1425 2.87144 15.0401 2.13485 13.8268 1.6323C12.6136 1.12975 11.3132 0.871094 10 0.871094ZM10 18.8711C8.41775 18.8711 6.87104 18.4019 5.55544 17.5229C4.23985 16.6438 3.21447 15.3944 2.60897 13.9326C2.00347 12.4708 1.84504 10.8622 2.15372 9.31037C2.4624 7.75852 3.22433 6.33306 4.34315 5.21424C5.46197 4.09542 6.88743 3.33349 8.43928 3.02481C9.99113 2.71613 11.5997 2.87456 13.0615 3.48006C14.5233 4.08556 15.7727 5.11094 16.6518 6.42653C17.5308 7.74213 18 9.28884 18 10.8711C18 12.9928 17.1572 15.0277 15.6569 16.5279C14.1566 18.0282 12.1217 18.8711 10 18.8711Z" fill="#52FC96"/>
</svg>
